<svg xmlns="http://www.w3.org/2000/svg" width="512" height="512" viewBox="0 0 512 512">
  <defs>
    <linearGradient id="bg" x1="0" y1="0" x2="0" y2="1">
      <stop offset="0%" stop-color="#1a0033"/>
      <stop offset="100%" stop-color="#003322"/>
    </linearGradient>
    <radialGradient id="glow" cx="50%" cy="40%" r="40%">
      <stop offset="0%" stop-color="#00ff6644"/>
      <stop offset="100%" stop-color="#00ff6600"/>
    </radialGradient>
  </defs>
  <!-- Background -->
  <rect width="512" height="512" fill="url(#bg)" rx="76.8"/>
  <rect width="512" height="512" fill="url(#glow)" rx="76.8"/>

  <!-- Emerald city silhouette -->
  <g transform="translate(256, 281.6)" fill="#006633">
    <rect x="-15.36" y="-143.36" width="30.72" height="143.36"/>
    <circle cx="0" cy="-143.36" r="20.48"/>
    <polygon points="-7.68,-158.72 0,-194.56 7.68,-158.72"/>
    <rect x="-66.56" y="-92.16" width="40.96" height="92.16"/>
    <rect x="25.6" y="-92.16" width="40.96" height="92.16"/>
    <rect x="-112.64" y="-61.44" width="30.72" height="61.44"/>
    <rect x="81.92" y="-61.44" width="30.72" height="61.44"/>
  </g>

  <!-- W letter -->
  <text x="256" y="215.04" font-family="Georgia, serif" font-size="143.36" font-weight="bold" fill="#33ff99" text-anchor="middle" dominant-baseline="central">W</text>

  <!-- Stars -->
  <polygon points="76.8,76.8 81.92,61.44 92.16,76.8 84.48,87.04 79.36,87.04" fill="#ffd700"/>
  <polygon points="435.2,76.8 440.32,61.44 450.56,76.8 442.88,87.04 437.76,87.04" fill="#ff69b4"/>

  <!-- Havi text at bottom -->
  <text x="256" y="419.84" font-family="Georgia, serif" font-size="46.08" fill="#ffd700" text-anchor="middle">HAVI</text>
</svg>